<svg width="535" height="531" viewBox="0 0 535 531" fill="none" xmlns="http://www.w3.org/2000/svg">
<path fill-rule="evenodd" clip-rule="evenodd" d="M257.942 5.39286C209.087 29.2668 107.391 57.1825 22.1734 70.11C8.84398 72.1319 -1.09075 74.4959 0.0962186 75.3627C1.28319 76.2274 24.4616 83.7387 51.6036 92.0502C78.7456 100.364 122.284 113.719 148.354 121.73L196 135L195.755 315.117L196 494L231.302 512.153C250.852 522.168 268.189 530.645 269.827 530.99C271.466 531.334 289.658 523.009 310.252 512.489L348 493L348.996 314.253L350 135L399.644 119.161C515.827 81.5275 536.055 74.754 534.959 73.8463C534.325 73.3193 522.676 71.1038 509.077 68.9226C455.585 60.3423 384.172 43.1106 342.503 28.7291C321.135 21.3533 283 4.08606 276.271 1.19626C271.26 -0.956137 270.139 -0.567557 257.942 5.39286Z" fill="#D31919"/>
</svg>
