<svg width="60" height="60" viewBox="0 0 60 60" fill="none" xmlns="http://www.w3.org/2000/svg">
<path d="M7 13C10.3137 13 13 10.3137 13 7C13 3.68629 10.3137 1 7 1C3.68629 1 1 3.68629 1 7C1 10.3137 3.68629 13 7 13Z" stroke="#D31919" stroke-dasharray="2 3"/>
<path d="M30 13C33.3137 13 36 10.3137 36 7C36 3.68629 33.3137 1 30 1C26.6863 1 24 3.68629 24 7C24 10.3137 26.6863 13 30 13Z" stroke="#D31919" stroke-dasharray="2 3"/>
<path d="M53 13C56.3137 13 59 10.3137 59 7C59 3.68629 56.3137 1 53 1C49.6863 1 47 3.68629 47 7C47 10.3137 49.6863 13 53 13Z" stroke="#D31919" stroke-dasharray="2 3"/>
<path d="M7 36C10.3137 36 13 33.3137 13 30C13 26.6863 10.3137 24 7 24C3.68629 24 1 26.6863 1 30C1 33.3137 3.68629 36 7 36Z" stroke="#D31919" stroke-dasharray="2 3"/>
<path d="M53 36C56.3137 36 59 33.3137 59 30C59 26.6863 56.3137 24 53 24C49.6863 24 47 26.6863 47 30C47 33.3137 49.6863 36 53 36Z" stroke="#D31919" stroke-dasharray="2 3"/>
<path d="M7 59C10.3137 59 13 56.3137 13 53C13 49.6863 10.3137 47 7 47C3.68629 47 1 49.6863 1 53C1 56.3137 3.68629 59 7 59Z" stroke="#D31919" stroke-dasharray="2 3"/>
<path d="M30 59C33.3137 59 36 56.3137 36 53C36 49.6863 33.3137 47 30 47C26.6863 47 24 49.6863 24 53C24 56.3137 26.6863 59 30 59Z" stroke="#D31919" stroke-dasharray="2 3"/>
<path d="M53 59C56.3137 59 59 56.3137 59 53C59 49.6863 56.3137 47 53 47C49.6863 47 47 49.6863 47 53C47 56.3137 49.6863 59 53 59Z" stroke="#D31919" stroke-dasharray="2 3"/>
<path d="M30 36C33.3137 36 36 33.3137 36 30C36 26.6863 33.3137 24 30 24C26.6863 24 24 26.6863 24 30C24 33.3137 26.6863 36 30 36Z" stroke="#1B1919"/>
</svg>
