<svg width="54" height="54" viewBox="0 0 54 54" fill="none" xmlns="http://www.w3.org/2000/svg">
<g clip-path="url(#clip0_258_1193)">
<path d="M16.2795 47.0036C18.5178 44.7652 18.5178 41.3419 16.2795 39.1035C14.0411 36.8652 10.6178 36.8652 8.37939 39.1035" stroke="#D31919" stroke-miterlimit="10" stroke-linecap="round" stroke-dasharray="2 3"/>
<path d="M46.7906 16.4925C44.6803 18.6028 41.5571 18.2812 39.3226 16.0468C37.0882 13.8123 37.2191 10.2638 39.3294 8.15347" stroke="#D31919" stroke-miterlimit="10" stroke-linecap="round" stroke-dasharray="2 3"/>
<path d="M7.90009 38.6242L1.31668 32.0408C0.526673 31.2508 0.538122 30.186 1.34531 29.3788L29.5967 1.12741C30.4039 0.320223 31.4687 0.308773 32.2587 1.09878L38.8421 7.68219" stroke="#D31919" stroke-miterlimit="10" stroke-linecap="round" stroke-dasharray="2 3"/>
<path d="M46.7697 16.5406L52.0364 21.8074C52.8264 22.5974 52.8149 23.6622 52.0078 24.4694L23.7563 52.7208C22.9492 53.528 21.8844 53.5394 21.0944 52.7494L15.8276 47.4827" stroke="#D31919" stroke-miterlimit="10" stroke-linecap="round" stroke-dasharray="2 3"/>
<path d="M27.4654 11.6379L27.4654 38.6379" stroke="#1B1919" stroke-miterlimit="10" stroke-linecap="round"/>
<path d="M20.0036 29.6334C21.458 28.179 21.458 25.821 20.0036 24.3666C18.5492 22.9123 16.1912 22.9123 14.7369 24.3666C13.2825 25.821 13.2825 28.179 14.7369 29.6334C16.1912 31.0877 18.5492 31.0877 20.0036 29.6334Z" stroke="#1B1919" stroke-miterlimit="10" stroke-linecap="round"/>
<path d="M40.4865 27.7713C41.9409 26.3169 41.9409 23.9589 40.4865 22.5046C39.0321 21.0502 36.6742 21.0502 35.2198 22.5046C33.7654 23.9589 33.7654 26.3169 35.2198 27.7713C36.6742 29.2257 39.0321 29.2257 40.4865 27.7713Z" stroke="#1B1919" stroke-miterlimit="10" stroke-linecap="round"/>
</g>
<defs>
<clipPath id="clip0_258_1193">
<rect width="54" height="54" fill="white"/>
</clipPath>
</defs>
</svg>
