<svg width="42" height="42" viewBox="0 0 42 42" fill="none" xmlns="http://www.w3.org/2000/svg">
<path d="M4.9002 9.09995C7.21979 9.09995 9.1002 7.21955 9.1002 4.89995C9.1002 2.58036 7.21979 0.699951 4.9002 0.699951C2.5806 0.699951 0.700195 2.58036 0.700195 4.89995C0.700195 7.21955 2.5806 9.09995 4.9002 9.09995Z" stroke="#D31919" stroke-dasharray="2 2"/>
<path d="M20.9998 9.09995C23.3194 9.09995 25.1998 7.21955 25.1998 4.89995C25.1998 2.58036 23.3194 0.699951 20.9998 0.699951C18.6802 0.699951 16.7998 2.58036 16.7998 4.89995C16.7998 7.21955 18.6802 9.09995 20.9998 9.09995Z" stroke="#D31919" stroke-dasharray="2 2"/>
<path d="M37.0999 9.09995C39.4195 9.09995 41.2999 7.21955 41.2999 4.89995C41.2999 2.58036 39.4195 0.699951 37.0999 0.699951C34.7803 0.699951 32.8999 2.58036 32.8999 4.89995C32.8999 7.21955 34.7803 9.09995 37.0999 9.09995Z" stroke="#D31919" stroke-dasharray="2 2"/>
<path d="M4.9002 25.2C7.21979 25.2 9.1002 23.3196 9.1002 21C9.1002 18.6805 7.21979 16.8 4.9002 16.8C2.5806 16.8 0.700195 18.6805 0.700195 21C0.700195 23.3196 2.5806 25.2 4.9002 25.2Z" stroke="#D31919" stroke-dasharray="2 2"/>
<path d="M37.0999 25.2C39.4195 25.2 41.2999 23.3196 41.2999 21C41.2999 18.6805 39.4195 16.8 37.0999 16.8C34.7803 16.8 32.8999 18.6805 32.8999 21C32.8999 23.3196 34.7803 25.2 37.0999 25.2Z" stroke="#D31919" stroke-dasharray="2 2"/>
<path d="M4.9002 41.2999C7.21979 41.2999 9.1002 39.4195 9.1002 37.0999C9.1002 34.7803 7.21979 32.8999 4.9002 32.8999C2.5806 32.8999 0.700195 34.7803 0.700195 37.0999C0.700195 39.4195 2.5806 41.2999 4.9002 41.2999Z" stroke="#D31919" stroke-dasharray="2 2"/>
<path d="M20.9998 41.2999C23.3194 41.2999 25.1998 39.4195 25.1998 37.0999C25.1998 34.7803 23.3194 32.8999 20.9998 32.8999C18.6802 32.8999 16.7998 34.7803 16.7998 37.0999C16.7998 39.4195 18.6802 41.2999 20.9998 41.2999Z" stroke="#D31919" stroke-dasharray="2 2"/>
<path d="M37.0999 41.2999C39.4195 41.2999 41.2999 39.4195 41.2999 37.0999C41.2999 34.7803 39.4195 32.8999 37.0999 32.8999C34.7803 32.8999 32.8999 34.7803 32.8999 37.0999C32.8999 39.4195 34.7803 41.2999 37.0999 41.2999Z" stroke="#D31919" stroke-dasharray="2 2"/>
<path d="M20.9998 25.2C23.3194 25.2 25.1998 23.3196 25.1998 21C25.1998 18.6805 23.3194 16.8 20.9998 16.8C18.6802 16.8 16.7998 18.6805 16.7998 21C16.7998 23.3196 18.6802 25.2 20.9998 25.2Z" stroke="#1B1919"/>
</svg>
