<svg width="73" height="73" viewBox="0 0 73 73" fill="none" xmlns="http://www.w3.org/2000/svg">
<path d="M21.7993 63.5813C24.8875 60.4931 24.8875 55.7699 21.7993 52.6816C18.711 49.5934 13.9878 49.5934 10.8996 52.6816" stroke="#D31919" stroke-miterlimit="10" stroke-linecap="round" stroke-dasharray="2 3"/>
<path d="M63.5814 21.799C60.4932 24.8872 55.77 24.8872 52.6818 21.799C49.5935 18.7107 49.5935 13.9875 52.6818 10.8993" stroke="#D31919" stroke-miterlimit="10" stroke-linecap="round" stroke-dasharray="2 3"/>
<path d="M10.8997 52.6819L1.81661 43.5988C0.726644 42.5089 0.726644 41.0556 1.81661 39.9656L39.9654 1.81678C41.0554 0.726812 42.5087 0.726812 43.5987 1.81678L52.6817 10.8998" stroke="#D31919" stroke-miterlimit="10" stroke-linecap="round" stroke-dasharray="2 3"/>
<path d="M63.5816 21.7995L70.8481 29.0659C71.938 30.1559 71.938 31.6092 70.8481 32.6992L32.6992 70.848C31.6093 71.938 30.156 71.938 29.066 70.848L21.7996 63.5815" stroke="#D31919" stroke-miterlimit="10" stroke-linecap="round" stroke-dasharray="2 3"/>
<path d="M36.5136 15.4412L36.6953 52.6818" stroke="#1B1919" stroke-miterlimit="10" stroke-linecap="round"/>
<path d="M27.2493 39.9657C29.2559 37.9592 29.2559 34.7059 27.2493 32.6993C25.2427 30.6927 21.9894 30.6927 19.9828 32.6993C17.9763 34.7059 17.9763 37.9592 19.9828 39.9657C21.9894 41.9723 25.2427 41.9723 27.2493 39.9657Z" stroke="#1B1919" stroke-miterlimit="10" stroke-linecap="round"/>
<path d="M54.4983 38.1488C56.5049 36.1423 56.5049 32.889 54.4983 30.8824C52.4917 28.8758 49.2384 28.8758 47.2319 30.8824C45.2253 32.889 45.2253 36.1423 47.2319 38.1488C49.2384 40.1554 52.4917 40.1554 54.4983 38.1488Z" stroke="#1B1919" stroke-miterlimit="10" stroke-linecap="round"/>
</svg>
