<svg width="60" height="64" viewBox="0 0 60 64" fill="none" xmlns="http://www.w3.org/2000/svg">
<path d="M38.5 47.5V60.7273C38.5 62.3909 37.3909 63.5 35.7273 63.5H3.27273C1.60909 63.5 0.5 62.3909 0.5 60.7273V3.27273C0.5 1.88636 1.60909 0.5 3.27273 0.5H35.7273C37.3909 0.5 38.5 2.11364 38.5 3.5" stroke="#1B1919" stroke-miterlimit="10" stroke-linecap="round" stroke-linejoin="round"/>
<path d="M0.5 55.5H38.5" stroke="#1B1919" stroke-miterlimit="10" stroke-linecap="round" stroke-linejoin="round"/>
<path d="M25.6429 12.5C24.0571 12.5 23.5 13.5571 23.5 15.1429V38.5H26.5V48.5L36.5 38.5H57.3496C58.9353 38.5 59.5 37.3715 59.5 35.7857V15.1429C59.5 13.5571 58.9429 12.5 57.3571 12.5H25.6429Z" stroke="#D31919" stroke-miterlimit="10" stroke-linecap="round" stroke-linejoin="round" stroke-dasharray="2 3"/>
</svg>
