<svg width="45" height="48" viewBox="0 0 45 48" fill="none" xmlns="http://www.w3.org/2000/svg">
<path d="M28.5001 35.5V45.3874C28.5001 46.655 27.6537 47.5 26.384 47.5H2.61603C1.34641 47.5 0.5 46.655 0.5 45.3874V2.61256C0.5 1.55628 1.34641 0.5 2.61603 0.5H26.384C27.6537 0.5 28.5 1.44372 28.5 2.5" stroke="#1B1919" stroke-miterlimit="10" stroke-linecap="round" stroke-linejoin="round"/>
<path d="M0.5 41.5H28.5" stroke="#1B1919" stroke-miterlimit="10" stroke-linecap="round" stroke-linejoin="round"/>
<path d="M20.1071 9.51782C18.9179 9.51782 18.5 10.3107 18.5 11.5V28.4999H20.5V35.9999L27.5 28.4999H42.8871C44.0764 28.4999 44.5 27.6535 44.5 26.4642V11.5C44.5 10.3107 44.0821 9.51782 42.8928 9.51782H20.1071Z" stroke="#D31919" stroke-miterlimit="10" stroke-linecap="round" stroke-linejoin="round" stroke-dasharray="2 3"/>
</svg>
