<svg width="87" height="81" viewBox="0 0 87 81" fill="none" xmlns="http://www.w3.org/2000/svg">
<g clip-path="url(#clip0_202_231)">
<path d="M38.2443 68.7518C31.756 75.2401 21.2363 75.2401 14.748 68.7518C8.25975 62.2635 8.25975 51.7438 14.748 45.2556C27.4236 32.58 58.6489 48.3472 72.252 34.7441" stroke="#1B1919"/>
<path d="M72.2519 34.7442C78.7402 28.2559 78.7402 17.7362 72.2519 11.2479C65.7636 4.75964 55.244 4.75964 48.7557 11.2479C36.3892 23.6144 51.8473 55.1488 38.2442 68.7518" stroke="#D31919" stroke-dasharray="2 3"/>
<path d="M16.9122 47.4197C18.1074 46.2245 18.1074 44.2867 16.9122 43.0915C15.717 41.8963 13.7791 41.8963 12.5839 43.0915C11.3887 44.2867 11.3887 46.2245 12.5839 47.4197C13.7791 48.615 15.717 48.615 16.9122 47.4197Z" fill="white" stroke="#1B1919"/>
<path d="M74.416 36.9085C75.6112 35.7133 75.6112 33.7755 74.416 32.5803C73.2207 31.385 71.2829 31.385 70.0877 32.5803C68.8925 33.7755 68.8925 35.7133 70.0877 36.9085C71.2829 38.1037 73.2207 38.1037 74.416 36.9085Z" fill="white" stroke="#1B1919"/>
<path d="M60.1946 9.0838C61.3899 7.88859 61.3899 5.95077 60.1946 4.75555C58.9994 3.56034 57.0616 3.56034 55.8664 4.75555C54.6712 5.95077 54.6712 7.88859 55.8664 9.0838C57.0616 10.279 58.9994 10.279 60.1946 9.0838Z" fill="white" stroke="#1B1919"/>
<path d="M28.042 75.8629C29.2372 74.6676 29.2372 72.7298 28.042 71.5346C26.8468 70.3394 24.909 70.3394 23.7137 71.5346C22.5185 72.7298 22.5185 74.6676 23.7137 75.8629C24.909 77.0581 26.8468 77.0581 28.042 75.8629Z" fill="white" stroke="#1B1919"/>
</g>
<defs>
<clipPath id="clip0_202_231">
<rect width="87" height="81" fill="white"/>
</clipPath>
</defs>
</svg>
