<svg width="50" height="52" viewBox="0 0 50 52" fill="none" xmlns="http://www.w3.org/2000/svg">
<g clip-path="url(#clip0_258_1128)">
<path d="M21.2039 46.7171C16.681 51.2427 9.30159 51.1964 4.72157 46.6136C0.141556 42.0308 0.0952422 34.6469 4.61813 30.1213C13.4541 21.28 35.4276 32.4847 44.9101 22.9965" stroke="#1B1919"/>
<path d="M45.6489 22.9804C50.1718 18.4548 50.1254 11.0709 45.5454 6.48814C40.9654 1.90535 33.586 1.859 29.0631 6.38463C20.4427 15.0103 31.4251 37.2128 21.9427 46.701" stroke="#D31919" stroke-dasharray="2 3"/>
<path d="M6.56998 31.701C7.45076 30.8197 7.45076 29.3908 6.56998 28.5095C5.68921 27.6282 4.2612 27.6282 3.38042 28.5095C2.49965 29.3908 2.49965 30.8197 3.38042 31.701C4.2612 32.5823 5.68921 32.5823 6.56998 31.701Z" fill="white" stroke="#1B1919"/>
<path d="M46.7487 24.4029C47.6295 23.5216 47.6295 22.0927 46.7487 21.2114C45.8679 20.3301 44.4399 20.3301 43.5591 21.2114C42.6784 22.0927 42.6784 23.5216 43.5591 24.4029C44.4399 25.2842 45.8679 25.2842 46.7487 24.4029Z" fill="white" stroke="#1B1919"/>
<path d="M36.9274 4.33256C37.8082 3.45126 37.8082 2.02238 36.9274 1.14107C36.0466 0.259761 34.6186 0.259761 33.7378 1.14107C32.8571 2.02238 32.8571 3.45126 33.7378 4.33256C34.6186 5.21387 36.0466 5.21387 36.9274 4.33256Z" fill="white" stroke="#1B1919"/>
<path d="M14.6056 50.8589C15.4864 49.9776 15.4864 48.5487 14.6056 47.6674C13.7249 46.7861 12.2968 46.7861 11.4161 47.6674C10.5353 48.5487 10.5353 49.9776 11.4161 50.8589C12.2968 51.7402 13.7249 51.7402 14.6056 50.8589Z" fill="white" stroke="#1B1919"/>
</g>
<defs>
<clipPath id="clip0_258_1128">
<rect width="50" height="52" fill="white"/>
</clipPath>
</defs>
</svg>
