<svg width="58" height="58" viewBox="0 0 58 58" fill="none" xmlns="http://www.w3.org/2000/svg">
<g clip-path="url(#clip0_251_824)">
<path d="M17.4853 50.4853C19.8894 48.0811 19.8894 44.4042 17.4853 42C15.0811 39.5958 11.4042 39.5958 9 42" stroke="#D31919" stroke-miterlimit="10" stroke-linecap="round" stroke-dasharray="2 3"/>
<path d="M50.2565 17.714C47.9899 19.9807 44.6353 19.6353 42.2353 17.2353C39.8354 14.8354 39.976 11.024 42.2426 8.75736" stroke="#D31919" stroke-miterlimit="10" stroke-linecap="round" stroke-dasharray="2 3"/>
<path d="M8.48528 41.4853L1.41421 34.4142C0.565685 33.5657 0.577983 32.422 1.44496 31.555L31.7891 1.21094C32.656 0.343962 33.7997 0.331665 34.6482 1.18019L41.7193 8.25126" stroke="#D31919" stroke-miterlimit="10" stroke-linecap="round" stroke-dasharray="2 3"/>
<path d="M50.234 17.766L55.8909 23.4228C56.7394 24.2714 56.7271 25.415 55.8601 26.282L25.516 56.6261C24.6491 57.4931 23.5054 57.5054 22.6569 56.6569L17 51" stroke="#D31919" stroke-miterlimit="10" stroke-linecap="round" stroke-dasharray="2 3"/>
<path d="M29.5001 12.4999L29.5001 41.5" stroke="#1B1919" stroke-miterlimit="10" stroke-linecap="round"/>
<path d="M21.4853 31.8284C23.0474 30.2663 23.0474 27.7337 21.4853 26.1716C19.9232 24.6095 17.3905 24.6095 15.8284 26.1716C14.2663 27.7337 14.2663 30.2663 15.8284 31.8284C17.3905 33.3905 19.9232 33.3905 21.4853 31.8284Z" stroke="#1B1919" stroke-miterlimit="10" stroke-linecap="round"/>
<path d="M43.4853 29.8284C45.0474 28.2663 45.0474 25.7337 43.4853 24.1716C41.9232 22.6095 39.3905 22.6095 37.8284 24.1716C36.2663 25.7337 36.2663 28.2663 37.8284 29.8284C39.3905 31.3905 41.9232 31.3905 43.4853 29.8284Z" stroke="#1B1919" stroke-miterlimit="10" stroke-linecap="round"/>
</g>
<defs>
<clipPath id="clip0_251_824">
<rect width="58" height="58" fill="white"/>
</clipPath>
</defs>
</svg>
