<svg width="54" height="56" viewBox="0 0 54 56" fill="none" xmlns="http://www.w3.org/2000/svg">
<g clip-path="url(#clip0_251_802)">
<path d="M22.9 50.3108C18.0153 55.1846 10.0455 55.1347 5.09911 50.1994C0.152695 45.2641 0.102676 37.3122 4.98739 32.4385C14.5302 22.917 38.2616 34.9837 48.5027 24.7656" stroke="#1B1919"/>
<path d="M49.3009 24.7483C54.1856 19.8745 54.1356 11.9227 49.1892 6.98736C44.2428 2.05204 36.2731 2.00214 31.3883 6.87589C22.0783 16.1651 33.9393 40.0754 23.6982 50.2935" stroke="#D31919" stroke-dasharray="2 3"/>
<path d="M7.09555 34.1396C8.04679 33.1905 8.04679 31.6517 7.09555 30.7026C6.14432 29.7535 4.60206 29.7535 3.65083 30.7026C2.69959 31.6517 2.69959 33.1905 3.65083 34.1396C4.60206 35.0887 6.14432 35.0887 7.09555 34.1396Z" fill="white" stroke="#1B1919"/>
<path d="M50.4886 26.28C51.4399 25.3309 51.4399 23.7921 50.4886 22.843C49.5374 21.8939 47.9951 21.8939 47.0439 22.843C46.0927 23.7921 46.0927 25.3309 47.0439 26.28C47.9951 27.2291 49.5374 27.2291 50.4886 26.28Z" fill="white" stroke="#1B1919"/>
<path d="M39.8814 4.66576C40.8327 3.71666 40.8327 2.17787 39.8814 1.22877C38.9302 0.279668 37.388 0.279668 36.4367 1.22877C35.4855 2.17787 35.4855 3.71666 36.4367 4.66576C37.388 5.61486 38.9302 5.61486 39.8814 4.66576Z" fill="white" stroke="#1B1919"/>
<path d="M15.7743 54.7712C16.7255 53.8221 16.7255 52.2833 15.7743 51.3342C14.823 50.3851 13.2808 50.3851 12.3295 51.3342C11.3783 52.2833 11.3783 53.8221 12.3295 54.7712C13.2808 55.7203 14.823 55.7203 15.7743 54.7712Z" fill="white" stroke="#1B1919"/>
</g>
<defs>
<clipPath id="clip0_251_802">
<rect width="54" height="56" fill="white"/>
</clipPath>
</defs>
</svg>
