<svg width="45" height="45" viewBox="0 0 45 45" fill="none" xmlns="http://www.w3.org/2000/svg">
<path d="M5.25 9.75C7.73528 9.75 9.75 7.73528 9.75 5.25C9.75 2.76472 7.73528 0.75 5.25 0.75C2.76472 0.75 0.75 2.76472 0.75 5.25C0.75 7.73528 2.76472 9.75 5.25 9.75Z" stroke="#D31919" stroke-dasharray="2 2"/>
<path d="M22.5 9.75C24.9853 9.75 27 7.73528 27 5.25C27 2.76472 24.9853 0.75 22.5 0.75C20.0147 0.75 18 2.76472 18 5.25C18 7.73528 20.0147 9.75 22.5 9.75Z" stroke="#D31919" stroke-dasharray="2 2"/>
<path d="M39.75 9.75C42.2353 9.75 44.25 7.73528 44.25 5.25C44.25 2.76472 42.2353 0.75 39.75 0.75C37.2647 0.75 35.25 2.76472 35.25 5.25C35.25 7.73528 37.2647 9.75 39.75 9.75Z" stroke="#D31919" stroke-dasharray="2 2"/>
<path d="M5.25 27C7.73528 27 9.75 24.9853 9.75 22.5C9.75 20.0147 7.73528 18 5.25 18C2.76472 18 0.75 20.0147 0.75 22.5C0.75 24.9853 2.76472 27 5.25 27Z" stroke="#D31919" stroke-dasharray="2 2"/>
<path d="M39.75 27C42.2353 27 44.25 24.9853 44.25 22.5C44.25 20.0147 42.2353 18 39.75 18C37.2647 18 35.25 20.0147 35.25 22.5C35.25 24.9853 37.2647 27 39.75 27Z" stroke="#D31919" stroke-dasharray="2 2"/>
<path d="M5.25 44.25C7.73528 44.25 9.75 42.2353 9.75 39.75C9.75 37.2647 7.73528 35.25 5.25 35.25C2.76472 35.25 0.75 37.2647 0.75 39.75C0.75 42.2353 2.76472 44.25 5.25 44.25Z" stroke="#D31919" stroke-dasharray="2 2"/>
<path d="M22.5 44.25C24.9853 44.25 27 42.2353 27 39.75C27 37.2647 24.9853 35.25 22.5 35.25C20.0147 35.25 18 37.2647 18 39.75C18 42.2353 20.0147 44.25 22.5 44.25Z" stroke="#D31919" stroke-dasharray="2 2"/>
<path d="M39.75 44.25C42.2353 44.25 44.25 42.2353 44.25 39.75C44.25 37.2647 42.2353 35.25 39.75 35.25C37.2647 35.25 35.25 37.2647 35.25 39.75C35.25 42.2353 37.2647 44.25 39.75 44.25Z" stroke="#D31919" stroke-dasharray="2 2"/>
<path d="M22.5 27C24.9853 27 27 24.9853 27 22.5C27 20.0147 24.9853 18 22.5 18C20.0147 18 18 20.0147 18 22.5C18 24.9853 20.0147 27 22.5 27Z" stroke="#1B1919"/>
</svg>
