<svg xmlns="http://www.w3.org/2000/svg" xmlns:xlink="http://www.w3.org/1999/xlink"><symbol id="icon-arr-diag" viewBox="0 0 62 62"><path d="M1 61L61 1m0 0H13.14M61 1v48" stroke-width="2"/></symbol><symbol id="icon-arr-left" viewBox="0 0 31 23"><path d="M30.1 11.5H1.5m0 0L13.2.45M1.5 11.5l11.7 11.05"/></symbol><symbol id="icon-arr-long" viewBox="0 0 121 28"><path d="M.5 13.5H120m0 0L104 1m16 12.5L104 27"/></symbol><symbol id="icon-arr-quote" viewBox="0 0 19 13"><path d="M3.592 8.492c-.423 1.02-1.09 2.027-1.982 2.997a.876.876 0 00-.09 1.093.94.94 0 00.796.418c.09 0 .18-.006.269-.037 1.886-.528 6.292-2.401 6.414-8.408A4.49 4.49 0 004.971.022a4.68 4.68 0 00-3.49 1.087A4.242 4.242 0 000 4.309c0 2.027 1.501 3.802 3.592 4.183zM14.965.022a4.674 4.674 0 00-3.483 1.087A4.242 4.242 0 0010 4.309c0 2.027 1.501 3.802 3.592 4.183-.423 1.02-1.09 2.027-1.982 2.997a.876.876 0 00-.09 1.093.94.94 0 00.796.418c.09 0 .18-.006.27-.037 1.885-.528 6.292-2.401 6.414-8.408v-.086C19 2.19 17.249.249 14.965.022z"/></symbol><symbol id="icon-arr-right" viewBox="0 0 31 23"><path d="M.9 11.5h28.6m0 0L17.8.45M29.5 11.5L17.8 22.55"/></symbol><symbol id="icon-minus" viewBox="0 0 16 2"><path d="M16 2V0H0v2h16z"/></symbol><symbol id="icon-plus" viewBox="0 0 16 16"><path d="M16 9V7H9V0H7v7H0v2h7v7h2V9h7z"/></symbol><symbol id="icon-soc-dscr" viewBox="0 0 22 22"><path d="M3.803 17.803C1.493 16.145 0 13.64 0 10.9 0 5.855 4.923 1.76 11 1.76c6.078 0 11 4.095 11 9.139 0 5.042-4.922 9.138-11 9.138a12.497 12.497 0 01-3.6-.508c-.1-.033-.237-.033-.338-.033-.204 0-.407.066-.578.169l-2.41 1.387a.483.483 0 01-.203.068.376.376 0 01-.374-.372c0-.102.033-.17.068-.271.033-.034.339-1.151.51-1.828 0-.068.032-.169.032-.237 0-.27-.1-.473-.304-.608zm3.53-8.44c.79 0 1.414-.626 1.414-1.414 0-.79-.625-1.415-1.413-1.415-.79 0-1.414.625-1.414 1.415 0 .788.624 1.413 1.414 1.413zm7.333 0c.79 0 1.414-.626 1.414-1.414 0-.79-.624-1.415-1.414-1.415-.788 0-1.413.625-1.413 1.415 0 .788.625 1.413 1.413 1.413z"/></symbol><symbol id="icon-soc-inst" viewBox="0 0 22 22"><path d="M14.2 11a3.2 3.2 0 11-6.4 0 3.2 3.2 0 016.4 0zM21 6.6v8.8a5.606 5.606 0 01-5.6 5.6H6.6A5.606 5.606 0 011 15.4V6.6A5.606 5.606 0 016.6 1h8.8A5.606 5.606 0 0121 6.6zM15.8 11a4.8 4.8 0 10-9.6 0 4.8 4.8 0 009.6 0zm1.6-5.2a1.2 1.2 0 10-2.4 0 1.2 1.2 0 002.4 0z"/></symbol><symbol id="icon-soc-tgm" viewBox="0 0 22 22"><path d="M20.515 2.118L1.027 9.45c-1.33.52-1.322 1.245-.244 1.567l5.004 1.523 11.576-7.125c.547-.325 1.047-.15.636.205L8.62 13.878h-.002l.002.001-.345 5.031c.506 0 .729-.226 1.012-.493l2.43-2.305 5.056 3.642c.931.501 1.6.244 1.833-.841l3.318-15.257c.34-1.329-.52-1.93-1.409-1.538z"/></symbol><symbol id="icon-soc-wapp" viewBox="0 0 22 22"><path d="M19.504 5.625C16.512 1 10.404-.375 5.667 2.5 1.055 5.375-.44 11.625 2.551 16.25l.25.375-.998 3.75 3.74-1 .374.25C7.537 20.5 9.282 21 11.027 21c1.87 0 3.74-.5 5.36-1.5 4.613-3 5.984-9.125 3.117-13.875zm-2.617 9.625c-.5.75-1.122 1.25-1.995 1.375-.499 0-1.122.25-3.615-.75-2.12-1-3.864-2.625-5.111-4.5-.748-.875-1.122-2-1.247-3.125 0-1 .374-1.875.998-2.5.249-.25.498-.375.748-.375h.623c.25 0 .499 0 .623.5.25.625.873 2.125.873 2.25a.381.381 0 010 .5c.124.25 0 .5-.125.625s-.25.375-.374.5c-.25.125-.374.375-.25.625.5.75 1.123 1.5 1.746 2.125.748.625 1.496 1.125 2.368 1.5.25.125.5.125.624-.125.125-.25.748-.875.997-1.125.25-.25.374-.25.623-.125l1.995 1c.25.125.498.25.623.375.125.375.125.875-.124 1.25z"/></symbol> <view id="icon-arr-diag-view-blue" viewBox="0 0 62 62"/><view id="icon-arr-diag-view-dark" viewBox="0 72 62 62"/><view id="icon-arr-diag-view-white" viewBox="0 144 62 62"/><view id="icon-arr-left-view-blue" viewBox="0 216 31 23"/><view id="icon-arr-left-view-dark" viewBox="0 249 31 23"/><view id="icon-arr-left-view-white" viewBox="0 282 31 23"/><view id="icon-arr-long-view-blue" viewBox="0 315 121 28"/><view id="icon-arr-long-view-dark" viewBox="0 353 121 28"/><view id="icon-arr-long-view-white" viewBox="0 391 121 28"/><view id="icon-arr-quote-view-blue" viewBox="0 429 19 13"/><view id="icon-arr-quote-view-dark" viewBox="0 452 19 13"/><view id="icon-arr-quote-view-white" viewBox="0 475 19 13"/><view id="icon-arr-right-view-blue" viewBox="0 498 31 23"/><view id="icon-arr-right-view-dark" viewBox="0 531 31 23"/><view id="icon-arr-right-view-white" viewBox="0 564 31 23"/><view id="icon-minus-view-blue" viewBox="0 597 16 2"/><view id="icon-minus-view-dark" viewBox="0 609 16 2"/><view id="icon-minus-view-white" viewBox="0 621 16 2"/><view id="icon-plus-view-blue" viewBox="0 633 16 16"/><view id="icon-plus-view-dark" viewBox="0 659 16 16"/><view id="icon-plus-view-white" viewBox="0 685 16 16"/><view id="icon-soc-dscr-view-blue" viewBox="0 711 22 22"/><view id="icon-soc-dscr-view-dark" viewBox="0 743 22 22"/><view id="icon-soc-dscr-view-white" viewBox="0 775 22 22"/><view id="icon-soc-inst-view-blue" viewBox="0 807 22 22"/><view id="icon-soc-inst-view-dark" viewBox="0 839 22 22"/><view id="icon-soc-inst-view-white" viewBox="0 871 22 22"/><view id="icon-soc-tgm-view-blue" viewBox="0 903 22 22"/><view id="icon-soc-tgm-view-dark" viewBox="0 935 22 22"/><view id="icon-soc-tgm-view-white" viewBox="0 967 22 22"/><view id="icon-soc-wapp-view-blue" viewBox="0 999 22 22"/><view id="icon-soc-wapp-view-dark" viewBox="0 1031 22 22"/><view id="icon-soc-wapp-view-white" viewBox="0 1063 22 22"/> <use xlink:href="#icon-arr-diag" x="0" y="0" width="62" height="62" style="fill:#638bf5"/><use xlink:href="#icon-arr-diag" x="0" y="72" width="62" height="62" style="fill:#46557b"/><use xlink:href="#icon-arr-diag" x="0" y="144" width="62" height="62" style="fill:#ffffff"/><use xlink:href="#icon-arr-left" x="0" y="216" width="31" height="23" style="fill:#638bf5"/><use xlink:href="#icon-arr-left" x="0" y="249" width="31" height="23" style="fill:#46557b"/><use xlink:href="#icon-arr-left" x="0" y="282" width="31" height="23" style="fill:#ffffff"/><use xlink:href="#icon-arr-long" x="0" y="315" width="121" height="28" style="fill:#638bf5"/><use xlink:href="#icon-arr-long" x="0" y="353" width="121" height="28" style="fill:#46557b"/><use xlink:href="#icon-arr-long" x="0" y="391" width="121" height="28" style="fill:#ffffff"/><use xlink:href="#icon-arr-quote" x="0" y="429" width="19" height="13" style="fill:#638bf5"/><use xlink:href="#icon-arr-quote" x="0" y="452" width="19" height="13" style="fill:#46557b"/><use xlink:href="#icon-arr-quote" x="0" y="475" width="19" height="13" style="fill:#ffffff"/><use xlink:href="#icon-arr-right" x="0" y="498" width="31" height="23" style="fill:#638bf5"/><use xlink:href="#icon-arr-right" x="0" y="531" width="31" height="23" style="fill:#46557b"/><use xlink:href="#icon-arr-right" x="0" y="564" width="31" height="23" style="fill:#ffffff"/><use xlink:href="#icon-minus" x="0" y="597" width="16" height="2" style="fill:#638bf5"/><use xlink:href="#icon-minus" x="0" y="609" width="16" height="2" style="fill:#46557b"/><use xlink:href="#icon-minus" x="0" y="621" width="16" height="2" style="fill:#ffffff"/><use xlink:href="#icon-plus" x="0" y="633" width="16" height="16" style="fill:#638bf5"/><use xlink:href="#icon-plus" x="0" y="659" width="16" height="16" style="fill:#46557b"/><use xlink:href="#icon-plus" x="0" y="685" width="16" height="16" style="fill:#ffffff"/><use xlink:href="#icon-soc-dscr" x="0" y="711" width="22" height="22" style="fill:#638bf5"/><use xlink:href="#icon-soc-dscr" x="0" y="743" width="22" height="22" style="fill:#46557b"/><use xlink:href="#icon-soc-dscr" x="0" y="775" width="22" height="22" style="fill:#ffffff"/><use xlink:href="#icon-soc-inst" x="0" y="807" width="22" height="22" style="fill:#638bf5"/><use xlink:href="#icon-soc-inst" x="0" y="839" width="22" height="22" style="fill:#46557b"/><use xlink:href="#icon-soc-inst" x="0" y="871" width="22" height="22" style="fill:#ffffff"/><use xlink:href="#icon-soc-tgm" x="0" y="903" width="22" height="22" style="fill:#638bf5"/><use xlink:href="#icon-soc-tgm" x="0" y="935" width="22" height="22" style="fill:#46557b"/><use xlink:href="#icon-soc-tgm" x="0" y="967" width="22" height="22" style="fill:#ffffff"/><use xlink:href="#icon-soc-wapp" x="0" y="999" width="22" height="22" style="fill:#638bf5"/><use xlink:href="#icon-soc-wapp" x="0" y="1031" width="22" height="22" style="fill:#46557b"/><use xlink:href="#icon-soc-wapp" x="0" y="1063" width="22" height="22" style="fill:#ffffff"/></svg>