<svg xmlns="http://www.w3.org/2000/svg" xmlns:xlink="http://www.w3.org/1999/xlink"><symbol id="icon-arr-diag" viewBox="0 0 64 64"><path d="M13.329 0H64v50.815h-2.069V3.561L1.468 64 0 62.532 60.439 2.069h-47.11V0z" fill-rule="evenodd"/></symbol><symbol id="icon-arr-left" viewBox="0 0 22 17"><path d="M22 8.116v.768H1.523l8.051 7.588-.508.528L0 8.524 9.042 0l.507.528-8.026 7.588H22z" fill-rule="evenodd"/></symbol><symbol id="icon-arr-long" viewBox="0 0 121 28"><path d="M.5 13.5H120m0 0L104 1m16 12.5L104 27"/></symbol><symbol id="icon-arr-right" viewBox="0 0 22 17"><path d="M0 8.884v-.768h20.477L12.426.528 12.934 0 22 8.476 12.958 17l-.508-.528 8.026-7.588H0z" fill-rule="evenodd"/></symbol><symbol id="icon-minus" viewBox="0 0 16 2"><path d="M0 0h16v2H0z"/></symbol><symbol id="icon-plus" viewBox="0 0 16 16"><path d="M7 0h2v7h7v2H9v7H7V9H0V7h7V0z" fill-rule="evenodd"/></symbol><symbol id="icon-quote" viewBox="0 0 19 13"><path d="M3.592 8.492c-.423 1.02-1.09 2.027-1.982 2.997a.876.876 0 00-.09 1.093.94.94 0 00.796.418c.09 0 .18-.006.269-.037 1.886-.528 6.292-2.401 6.414-8.408A4.49 4.49 0 004.971.022a4.68 4.68 0 00-3.49 1.087A4.242 4.242 0 000 4.309c0 2.027 1.501 3.802 3.592 4.183zM14.965.022a4.674 4.674 0 00-3.483 1.087A4.242 4.242 0 0010 4.309c0 2.027 1.501 3.802 3.592 4.183-.423 1.02-1.09 2.027-1.982 2.997a.876.876 0 00-.09 1.093.94.94 0 00.796.418c.09 0 .18-.006.27-.037 1.885-.528 6.292-2.401 6.414-8.408v-.086C19 2.19 17.249.249 14.965.022z"/></symbol><symbol id="icon-soc-dscr" viewBox="0 0 22 22"><path d="M3.803 17.803C1.493 16.145 0 13.64 0 10.9 0 5.855 4.923 1.76 11 1.76c6.078 0 11 4.095 11 9.139 0 5.042-4.922 9.138-11 9.138a12.497 12.497 0 01-3.6-.508c-.1-.033-.237-.033-.338-.033-.204 0-.407.066-.578.169l-2.41 1.387a.483.483 0 01-.203.068.376.376 0 01-.374-.372c0-.102.033-.17.068-.271.033-.034.339-1.151.51-1.828 0-.068.032-.169.032-.237 0-.27-.1-.473-.304-.608zm3.53-8.44c.79 0 1.414-.626 1.414-1.414 0-.79-.625-1.415-1.413-1.415-.79 0-1.414.625-1.414 1.415 0 .788.624 1.413 1.414 1.413zm7.333 0c.79 0 1.414-.626 1.414-1.414 0-.79-.624-1.415-1.414-1.415-.788 0-1.413.625-1.413 1.415 0 .788.625 1.413 1.413 1.413z"/></symbol><symbol id="icon-soc-inst" viewBox="0 0 22 22"><path d="M14.2 11a3.2 3.2 0 11-6.4 0 3.2 3.2 0 016.4 0zM21 6.6v8.8a5.606 5.606 0 01-5.6 5.6H6.6A5.606 5.606 0 011 15.4V6.6A5.606 5.606 0 016.6 1h8.8A5.606 5.606 0 0121 6.6zM15.8 11a4.8 4.8 0 10-9.6 0 4.8 4.8 0 009.6 0zm1.6-5.2a1.2 1.2 0 10-2.4 0 1.2 1.2 0 002.4 0z"/></symbol><symbol id="icon-soc-tgm" viewBox="0 0 22 22"><path d="M20.515 2.118L1.027 9.45c-1.33.52-1.322 1.245-.244 1.567l5.004 1.523 11.576-7.125c.547-.325 1.047-.15.636.205L8.62 13.878h-.002l.002.001-.345 5.031c.506 0 .729-.226 1.012-.493l2.43-2.305 5.056 3.642c.931.501 1.6.244 1.833-.841l3.318-15.257c.34-1.329-.52-1.93-1.409-1.538z"/></symbol><symbol id="icon-soc-wapp" viewBox="0 0 22 22"><path d="M19.504 5.625C16.512 1 10.404-.375 5.667 2.5 1.055 5.375-.44 11.625 2.551 16.25l.25.375-.998 3.75 3.74-1 .374.25C7.537 20.5 9.282 21 11.027 21c1.87 0 3.74-.5 5.36-1.5 4.613-3 5.984-9.125 3.117-13.875zm-2.617 9.625c-.5.75-1.122 1.25-1.995 1.375-.499 0-1.122.25-3.615-.75-2.12-1-3.864-2.625-5.111-4.5-.748-.875-1.122-2-1.247-3.125 0-1 .374-1.875.998-2.5.249-.25.498-.375.748-.375h.623c.25 0 .499 0 .623.5.25.625.873 2.125.873 2.25a.381.381 0 010 .5c.124.25 0 .5-.125.625s-.25.375-.374.5c-.25.125-.374.375-.25.625.5.75 1.123 1.5 1.746 2.125.748.625 1.496 1.125 2.368 1.5.25.125.5.125.624-.125.125-.25.748-.875.997-1.125.25-.25.374-.25.623-.125l1.995 1c.25.125.498.25.623.375.125.375.125.875-.124 1.25z"/></symbol> <view id="icon-arr-diag-view-red" viewBox="0 0 64 64"/><view id="icon-arr-diag-view-black" viewBox="0 74 64 64"/><view id="icon-arr-diag-view-white" viewBox="0 148 64 64"/><view id="icon-arr-left-view-red" viewBox="0 222 22 17"/><view id="icon-arr-left-view-black" viewBox="0 249 22 17"/><view id="icon-arr-left-view-white" viewBox="0 276 22 17"/><view id="icon-arr-long-view-red" viewBox="0 303 121 28"/><view id="icon-arr-long-view-black" viewBox="0 341 121 28"/><view id="icon-arr-long-view-white" viewBox="0 379 121 28"/><view id="icon-arr-right-view-red" viewBox="0 417 22 17"/><view id="icon-arr-right-view-black" viewBox="0 444 22 17"/><view id="icon-arr-right-view-white" viewBox="0 471 22 17"/><view id="icon-minus-view-red" viewBox="0 498 16 2"/><view id="icon-minus-view-black" viewBox="0 510 16 2"/><view id="icon-minus-view-white" viewBox="0 522 16 2"/><view id="icon-plus-view-red" viewBox="0 534 16 16"/><view id="icon-plus-view-black" viewBox="0 560 16 16"/><view id="icon-plus-view-white" viewBox="0 586 16 16"/><view id="icon-quote-view-red" viewBox="0 612 19 13"/><view id="icon-quote-view-black" viewBox="0 635 19 13"/><view id="icon-quote-view-white" viewBox="0 658 19 13"/><view id="icon-soc-dscr-view-red" viewBox="0 681 22 22"/><view id="icon-soc-dscr-view-black" viewBox="0 713 22 22"/><view id="icon-soc-dscr-view-white" viewBox="0 745 22 22"/><view id="icon-soc-inst-view-red" viewBox="0 777 22 22"/><view id="icon-soc-inst-view-black" viewBox="0 809 22 22"/><view id="icon-soc-inst-view-white" viewBox="0 841 22 22"/><view id="icon-soc-tgm-view-red" viewBox="0 873 22 22"/><view id="icon-soc-tgm-view-black" viewBox="0 905 22 22"/><view id="icon-soc-tgm-view-white" viewBox="0 937 22 22"/><view id="icon-soc-wapp-view-red" viewBox="0 969 22 22"/><view id="icon-soc-wapp-view-black" viewBox="0 1001 22 22"/><view id="icon-soc-wapp-view-white" viewBox="0 1033 22 22"/> <use xlink:href="#icon-arr-diag" x="0" y="0" width="64" height="64" style="fill:#D31919"/><use xlink:href="#icon-arr-diag" x="0" y="74" width="64" height="64" style="fill:#060403"/><use xlink:href="#icon-arr-diag" x="0" y="148" width="64" height="64" style="fill:#ffffff"/><use xlink:href="#icon-arr-left" x="0" y="222" width="22" height="17" style="fill:#D31919"/><use xlink:href="#icon-arr-left" x="0" y="249" width="22" height="17" style="fill:#060403"/><use xlink:href="#icon-arr-left" x="0" y="276" width="22" height="17" style="fill:#ffffff"/><use xlink:href="#icon-arr-long" x="0" y="303" width="121" height="28" style="fill:#D31919"/><use xlink:href="#icon-arr-long" x="0" y="341" width="121" height="28" style="fill:#060403"/><use xlink:href="#icon-arr-long" x="0" y="379" width="121" height="28" style="fill:#ffffff"/><use xlink:href="#icon-arr-right" x="0" y="417" width="22" height="17" style="fill:#D31919"/><use xlink:href="#icon-arr-right" x="0" y="444" width="22" height="17" style="fill:#060403"/><use xlink:href="#icon-arr-right" x="0" y="471" width="22" height="17" style="fill:#ffffff"/><use xlink:href="#icon-minus" x="0" y="498" width="16" height="2" style="fill:#D31919"/><use xlink:href="#icon-minus" x="0" y="510" width="16" height="2" style="fill:#060403"/><use xlink:href="#icon-minus" x="0" y="522" width="16" height="2" style="fill:#ffffff"/><use xlink:href="#icon-plus" x="0" y="534" width="16" height="16" style="fill:#D31919"/><use xlink:href="#icon-plus" x="0" y="560" width="16" height="16" style="fill:#060403"/><use xlink:href="#icon-plus" x="0" y="586" width="16" height="16" style="fill:#ffffff"/><use xlink:href="#icon-quote" x="0" y="612" width="19" height="13" style="fill:#D31919"/><use xlink:href="#icon-quote" x="0" y="635" width="19" height="13" style="fill:#060403"/><use xlink:href="#icon-quote" x="0" y="658" width="19" height="13" style="fill:#ffffff"/><use xlink:href="#icon-soc-dscr" x="0" y="681" width="22" height="22" style="fill:#D31919"/><use xlink:href="#icon-soc-dscr" x="0" y="713" width="22" height="22" style="fill:#060403"/><use xlink:href="#icon-soc-dscr" x="0" y="745" width="22" height="22" style="fill:#ffffff"/><use xlink:href="#icon-soc-inst" x="0" y="777" width="22" height="22" style="fill:#D31919"/><use xlink:href="#icon-soc-inst" x="0" y="809" width="22" height="22" style="fill:#060403"/><use xlink:href="#icon-soc-inst" x="0" y="841" width="22" height="22" style="fill:#ffffff"/><use xlink:href="#icon-soc-tgm" x="0" y="873" width="22" height="22" style="fill:#D31919"/><use xlink:href="#icon-soc-tgm" x="0" y="905" width="22" height="22" style="fill:#060403"/><use xlink:href="#icon-soc-tgm" x="0" y="937" width="22" height="22" style="fill:#ffffff"/><use xlink:href="#icon-soc-wapp" x="0" y="969" width="22" height="22" style="fill:#D31919"/><use xlink:href="#icon-soc-wapp" x="0" y="1001" width="22" height="22" style="fill:#060403"/><use xlink:href="#icon-soc-wapp" x="0" y="1033" width="22" height="22" style="fill:#ffffff"/></svg>