<svg width="755" height="730" viewBox="0 0 755 730" fill="none" xmlns="http://www.w3.org/2000/svg">
<path fill-rule="evenodd" clip-rule="evenodd" d="M362.349 7.57147C305.994 40.3854 188.687 78.7545 90.3873 96.5229C75.0116 99.302 63.5518 102.551 64.921 103.743C66.2902 104.931 93.0268 115.255 124.335 126.679C155.644 138.106 205.866 156.462 235.938 167.472L290.615 187.491V433.277V679.064L331.619 704.096C354.17 717.861 374.168 729.513 376.059 729.986C377.949 730.459 398.934 719.017 422.689 704.557L465.883 678.265L467.381 432.089L468.879 185.912L525.804 163.942C659.822 112.216 683.155 102.906 681.891 101.658C681.16 100.934 667.723 97.8888 652.035 94.8909C590.332 83.0976 507.956 59.4132 459.891 39.6463C435.243 29.5085 388.969 6.58696 383.492 1.80339C379.696 -1.51378 376.418 -0.620922 362.349 7.57147ZM0 301.454V475.404L8.89822 492.977C13.7937 502.642 21.5475 514.004 26.1254 518.222C30.7063 522.441 66.8115 544.919 106.359 568.169C145.907 591.419 187.378 616.191 198.517 623.219C209.656 630.246 220.106 635.997 221.736 635.997C223.639 635.997 224.702 598.399 224.702 531.284V426.572L192.947 408.591C175.481 398.701 160.65 390.609 159.991 390.609C159.329 390.609 158.79 417.883 158.79 451.217C158.79 484.551 157.9 511.825 156.809 511.825C155.722 511.825 134.15 500.203 108.873 485.997L62.9167 460.172V335.217C62.9167 266.494 63.9293 210.344 65.1637 210.442C66.3981 210.539 87.6339 217.531 112.351 225.978L158.79 244V272.942V304L189.613 319.491C205.74 327.71 220.262 334.436 221.883 334.436C223.741 334.436 224.529 312.357 224.016 274.568L223.204 214.699L187.252 200.484C144.741 183.68 34.5323 140.642 14.2312 132.92L0 127.507V301.454ZM725.04 138.245C711.033 143.844 666.542 161.042 626.171 176.457C585.799 191.872 547.714 206.652 541.533 209.304L530.298 214.12V257.772V301.424L604.449 346.413C645.234 371.159 681.633 393.252 685.342 395.511C691.697 399.378 692.083 401.551 692.083 433.381V467.143L641.45 495.396C613.602 510.938 589.835 523.651 588.636 523.651C587.438 523.651 587.348 502.698 588.442 477.086C589.532 451.477 589.367 429.123 588.073 427.411C584.771 423.042 533.057 392.815 531.505 394.346C530.804 395.038 530.582 450.241 531.014 517.022L531.796 638.442L558.76 622.075C573.59 613.069 615.385 587.803 651.637 565.925C687.889 544.044 721.984 521.948 727.404 516.815C732.823 511.686 741.248 499.603 746.129 489.967C754.871 472.702 755 471.756 754.916 424.875L754.829 377.305L737.689 367.156C728.26 361.571 691.22 338.98 655.382 316.952L590.218 276.897V262.597V248.293L618.797 235.116C659.289 216.443 692.02 203.964 695.283 205.954C696.82 206.891 698.075 219.533 698.075 234.046V260.433L720.863 275.325C733.396 283.514 746.204 291.564 749.326 293.214C754.832 296.123 755 293.726 755 211.846C755 165.447 753.99 127.613 752.753 127.77C751.516 127.93 739.046 132.642 725.04 138.245Z" fill="white"/>
</svg>
