<svg width="273" height="264" viewBox="0 0 273 264" fill="none" xmlns="http://www.w3.org/2000/svg">
<path d="M131.022 2.73817C136.109 -0.224552 137.294 -0.547448 138.667 0.652184C140.647 2.38213 157.379 10.6716 166.292 14.3378C183.672 21.4864 213.458 30.0517 235.769 34.3167C240.561 35.2327 244.773 36.1608 246.124 36.5848L23.4747 37.5179C22.9797 37.087 27.1234 35.9119 32.6831 34.9069C68.2272 28.4811 110.644 14.6051 131.022 2.73817ZM131.022 2.73817L131.273 3.17025C110.826 15.0778 68.3463 28.9677 32.772 35.3989C30.0017 35.8997 27.5929 36.4414 25.9448 36.9087C25.281 37.097 24.7546 37.2693 24.3816 37.4176C24.6986 37.5591 25.1207 37.7385 25.6389 37.952C26.7867 38.4249 28.3914 39.0595 30.337 39.8108C34.2273 41.3129 39.4715 43.2781 45.1297 45.343L45.1298 45.343C56.4508 49.4754 74.6108 56.1141 85.4844 60.0958L105.255 67.3353L105.583 67.4555V67.8048V156.692V245.299L120.17 254.205C124.245 256.693 128.089 258.989 130.998 260.684C132.452 261.532 133.671 262.228 134.568 262.722C135.016 262.969 135.381 263.164 135.653 263.302C135.731 263.341 135.8 263.376 135.861 263.405C135.905 263.426 135.945 263.444 135.98 263.46C136.014 263.475 136.039 263.486 136.058 263.494C136.063 263.493 136.068 263.492 136.073 263.49C136.14 263.475 136.239 263.444 136.374 263.394C136.644 263.295 137.014 263.134 137.48 262.914C138.409 262.474 139.681 261.815 141.205 260.983C144.253 259.321 148.29 256.983 152.58 254.372L167.96 245.008L168.5 156.259L169.042 67.2308L169.044 66.8901L169.362 66.7674L189.945 58.8223C214.176 49.4686 228.397 43.9514 236.503 40.7163C240.558 39.0979 243.075 38.0539 244.547 37.3878C244.95 37.2055 245.269 37.0541 245.517 36.929C245.49 36.9216 245.462 36.914 245.433 36.9063C244.862 36.7519 244.06 36.5575 243.084 36.3364C241.134 35.8943 238.507 35.3491 235.675 34.8078C213.338 30.5378 183.518 21.9639 166.101 14.8002C161.63 12.9609 155.207 9.96626 149.658 7.21692C146.882 5.84185 144.32 4.52594 142.327 3.44431C141.33 2.90365 140.472 2.41974 139.799 2.01509C139.136 1.61679 138.623 1.27771 138.338 1.02874L138.338 1.02866C138.029 0.759109 137.769 0.608117 137.492 0.541566C137.214 0.474951 136.868 0.480517 136.369 0.616668C135.34 0.897176 133.831 1.68044 131.273 3.17024L131.022 2.73817ZM39.3672 175.758L39.6122 175.322C44.1804 177.89 48.4128 180.223 51.5512 181.914C53.1208 182.76 54.4145 183.444 55.339 183.916C55.7692 184.135 56.116 184.307 56.3719 184.428C56.4083 184.16 56.4447 183.793 56.4803 183.33C56.5651 182.228 56.642 180.627 56.7068 178.643C56.8363 174.678 56.9167 169.204 56.9167 163.18C56.9167 157.15 56.9654 151.667 57.0442 147.69C57.0836 145.702 57.1305 144.087 57.1827 142.968C57.2088 142.409 57.2365 141.967 57.266 141.661C57.2805 141.51 57.2966 141.379 57.3159 141.28C57.3248 141.234 57.3388 141.171 57.3627 141.109C57.3736 141.081 57.3981 141.022 57.445 140.962C57.4841 140.912 57.6168 140.761 57.8511 140.761C57.9428 140.761 58.0212 140.787 58.0409 140.794L58.0432 140.795C58.0779 140.806 58.1134 140.82 58.146 140.833C58.2122 140.861 58.2945 140.898 58.3884 140.943C58.5777 141.034 58.8371 141.165 59.1562 141.331C59.7955 141.663 60.6889 142.143 61.7699 142.733C63.9326 143.913 66.8546 145.54 70.0141 147.329L39.3672 175.758ZM39.3672 175.758L39.6122 175.322L23.25 166.126M39.3672 175.758L23.25 166.126M23.25 166.126V121.229C23.25 108.804 23.3415 97.5177 23.4888 89.3428C23.5624 85.2547 23.65 81.9479 23.7468 79.6669C23.7953 78.5252 23.8458 77.6469 23.8975 77.0581C23.909 76.9273 23.9204 76.8132 23.9314 76.7154C24.1953 76.7922 24.5581 76.9032 25.0101 77.0452C25.9292 77.3339 27.2077 77.748 28.7532 78.2569C31.8436 79.2746 35.9958 80.6698 40.4633 82.1967L56.3917 87.6422L56.9172 98.7313L57.4589 110.16L57.4726 110.45L57.7312 110.582L68.3349 115.988L68.562 115.542L68.3349 115.988C71.255 117.476 74.0314 118.83 76.1532 119.813C77.2135 120.304 78.1143 120.704 78.7896 120.983C79.1266 121.121 79.4132 121.232 79.6381 121.309C79.7502 121.348 79.853 121.38 79.9425 121.403C80.0213 121.423 80.1274 121.447 80.2306 121.447C80.5427 121.447 80.7135 121.218 80.775 121.12C80.8505 121 80.9035 120.856 80.944 120.717C81.0274 120.433 81.0968 120.035 81.1568 119.547C81.2778 118.563 81.3711 117.12 81.4373 115.264C81.5697 111.547 81.5945 106.125 81.5019 99.2889L81.2083 77.6378L81.2038 77.3028L80.8922 77.1796L67.8922 72.039L23.25 166.126ZM56.2944 184.841C56.2945 184.84 56.2947 184.84 56.295 184.839L56.2944 184.841ZM56.7875 184.608C56.7968 184.61 56.7979 184.611 56.7882 184.608L56.7875 184.608ZM80.75 154.559V192.136C80.75 204.27 80.6539 213.732 80.4719 220.158C80.3809 223.372 80.2686 225.82 80.1369 227.46C80.0708 228.283 80.0009 228.889 79.9292 229.283C79.9207 229.329 79.9125 229.372 79.9045 229.41C79.7675 229.356 79.5976 229.282 79.3959 229.187C78.9096 228.959 78.2666 228.625 77.5101 228.209C75.9987 227.377 74.0557 226.227 72.0485 224.96C68.0127 222.414 53.0099 213.451 38.7118 205.044C31.5647 200.842 24.7296 196.709 19.4754 193.438C16.8481 191.802 14.6181 190.383 12.9429 189.278C11.2506 188.162 10.1632 187.392 9.78542 187.044C9.00124 186.321 7.91254 184.952 6.78817 183.304C5.66955 181.664 4.53756 179.782 3.66359 178.056L0.5 171.808V109.019V46.8372L4.96804 48.537C12.3055 51.3285 52.1534 66.8918 67.5245 72.9689L80.2129 77.9864L80.502 99.3025C80.5945 106.133 80.5695 111.536 80.4379 115.228C80.372 117.077 80.2798 118.485 80.1643 119.425C80.1114 119.855 80.0557 120.169 80.0009 120.377C79.9884 120.372 79.9755 120.368 79.9622 120.363C79.765 120.296 79.4996 120.194 79.1708 120.058C78.5144 119.787 77.6282 119.394 76.5735 118.905C74.4655 117.929 71.7006 116.581 68.7891 115.097L58.444 109.823L57.9161 98.684L57.3744 87.2554L57.3584 86.9159L57.0368 86.806L40.7867 81.2504L40.625 81.7236L80.75 154.559ZM196.01 76.1529L196.01 76.1528C198.233 75.1989 211.991 69.8589 226.595 64.2817C241.193 58.7071 257.284 52.4863 262.352 50.4596L262.167 49.9953L262.352 50.4596C264.882 49.4474 267.273 48.516 269.085 47.8308C269.992 47.4881 270.752 47.2078 271.312 47.01C271.521 46.936 271.701 46.8742 271.849 46.8252C271.851 46.8411 271.853 46.8575 271.855 46.8744C271.906 47.2586 271.956 47.8403 272.004 48.606C272.101 50.1339 272.188 52.3561 272.262 55.1097C272.409 60.615 272.5 68.2259 272.5 76.6128C272.5 91.4308 272.484 99.0257 272.222 102.79C272.156 103.729 272.077 104.413 271.982 104.903C271.884 105.408 271.78 105.651 271.703 105.757C271.688 105.778 271.677 105.789 271.671 105.795C271.668 105.795 271.663 105.794 271.658 105.794C271.577 105.786 271.44 105.733 271.182 105.597C270.078 105.014 265.47 102.118 260.93 99.1509L252.917 93.9134V84.6414C252.917 82.0047 252.803 79.5326 252.618 77.6711C252.525 76.7422 252.414 75.9536 252.288 75.3686C252.225 75.0776 252.155 74.8215 252.076 74.6184C252.036 74.5168 251.989 74.4161 251.932 74.3264C251.879 74.2425 251.795 74.1329 251.667 74.0551C251.481 73.9413 251.259 73.9135 251.078 73.9078C250.883 73.9018 250.656 73.9207 250.408 73.9567C249.911 74.0291 249.271 74.1795 248.51 74.3956C246.985 74.8289 244.922 75.5425 242.449 76.4858C237.499 78.3735 230.868 81.1948 223.541 84.5744L213.207 89.3398L212.917 89.4738V89.7938V94.9665V100.138V100.418L213.155 100.564L236.717 115.05C249.675 123.015 263.072 131.187 266.486 133.21L266.74 132.78L266.486 133.21L272.439 136.735L272.47 153.654C272.485 162.15 272.479 166.43 272.082 169.373C271.691 172.268 270.924 173.85 269.346 176.968C267.597 180.422 264.581 184.738 262.678 186.54L263.021 186.903L262.678 186.54C262.22 186.973 261.116 187.799 259.473 188.937C257.842 190.067 255.712 191.484 253.232 193.092C248.271 196.308 241.917 200.281 235.367 204.235C222.258 212.147 207.145 221.285 201.782 224.542L192.786 230.003L192.509 186.975C192.431 174.9 192.412 163.874 192.444 155.835C192.46 151.815 192.489 148.544 192.53 146.263C192.55 145.122 192.573 144.232 192.599 143.622C192.606 143.465 192.613 143.329 192.62 143.212C192.722 143.252 192.841 143.301 192.977 143.361C193.528 143.603 194.297 143.984 195.219 144.468C197.06 145.435 199.481 146.795 201.924 148.223C204.367 149.651 206.828 151.145 208.75 152.379C209.712 152.996 210.534 153.545 211.151 153.987C211.46 154.208 211.712 154.399 211.903 154.556C212.078 154.7 212.179 154.798 212.225 154.852C212.229 154.862 212.235 154.879 212.242 154.904C212.261 154.974 212.282 155.077 212.303 155.216C212.346 155.494 212.384 155.88 212.416 156.369C212.48 157.345 212.519 158.692 212.531 160.316C212.555 163.562 212.472 167.89 212.275 172.514C212.077 177.15 211.986 181.369 211.999 184.431C212.005 185.96 212.038 187.209 212.096 188.08C212.126 188.513 212.162 188.868 212.209 189.122C212.232 189.245 212.262 189.372 212.306 189.479C212.328 189.531 212.365 189.609 212.428 189.682C212.492 189.755 212.631 189.875 212.845 189.875C212.939 189.875 213.022 189.85 213.054 189.84C213.101 189.826 213.152 189.807 213.203 189.787C213.305 189.747 213.435 189.69 213.586 189.62C213.891 189.48 214.308 189.275 214.821 189.015C215.85 188.494 217.284 187.741 219.015 186.815C222.48 184.961 227.149 182.405 232.185 179.593L250.494 169.376L250.75 169.233V168.94V156.729C250.75 150.998 250.717 147.867 250.385 146.002C250.216 145.054 249.963 144.381 249.563 143.846C249.167 143.315 248.656 142.962 248.073 142.607C246.731 141.79 233.569 133.8 218.822 124.851L192.25 108.727V93.2216V77.7647L196.01 76.1529Z" stroke="#DFDFDF"/>
</svg>
