<svg width="57" height="55" viewBox="0 0 57 55" fill="none" xmlns="http://www.w3.org/2000/svg">
<path fill-rule="evenodd" clip-rule="evenodd" d="M27.3562 0.570453C23.1015 3.04273 14.2452 5.93356 6.82394 7.27227C5.66313 7.48166 4.79795 7.72646 4.90132 7.81622C5.00469 7.90577 7.02321 8.6836 9.3869 9.5443C11.7506 10.4052 15.5422 11.7883 17.8125 12.6178L21.9405 14.126V32.6442V51.1623L25.0361 53.0483C26.7387 54.0854 28.2485 54.9633 28.3912 54.9989C28.5339 55.0346 30.1182 54.1725 31.9116 53.0831L35.1726 51.1022L35.2857 32.5546L35.3988 14.0071L39.6964 12.3518C49.8144 8.45462 51.576 7.75319 51.4805 7.65919C51.4253 7.60461 50.4108 7.37518 49.2265 7.14932C44.5681 6.26077 38.349 4.47634 34.7202 2.98705C32.8594 2.22324 29.3659 0.496278 28.9524 0.135872C28.6658 -0.114052 28.4183 -0.0467818 27.3562 0.570453ZM0 22.7123V35.8181L0.671786 37.1421C1.04138 37.8703 1.62676 38.7263 1.97238 39.0442C2.31823 39.362 5.04405 41.0556 8.02976 42.8073C11.0155 44.559 14.1464 46.4254 14.9874 46.9548C15.8284 47.4843 16.6173 47.9175 16.7404 47.9175C16.884 47.9175 16.9643 45.0849 16.9643 40.0283V32.139L14.5669 30.7842C13.2482 30.0391 12.1286 29.4295 12.0788 29.4295C12.0288 29.4295 11.9881 31.4843 11.9881 33.9958C11.9881 36.5073 11.9209 38.5621 11.8386 38.5621C11.7565 38.5621 10.1279 37.6865 8.21953 36.6162L4.75 34.6705V25.2561C4.75 20.0783 4.82645 15.8478 4.91964 15.8552C5.01283 15.8625 6.61607 16.3894 8.48214 17.0257L11.875 18.1831L11.9881 20.5641L12.1012 22.945L14.3151 24.0713C15.5327 24.6905 16.6291 25.1973 16.7514 25.1973C16.8917 25.1973 16.9512 23.5338 16.9125 20.6866L16.8512 16.176L14.1369 15.105C10.9275 13.8389 2.60707 10.5963 1.0744 10.0145L0 9.60667V22.7123ZM54.7381 10.4157C53.6807 10.8376 50.3217 12.1333 47.2738 13.2947C44.2259 14.4561 41.3506 15.5696 40.8839 15.7694L40.0357 16.1323V19.4212V22.71L45.6339 26.0996C48.7131 27.964 51.461 29.6286 51.7411 29.7988C52.2208 30.0901 52.25 30.2539 52.25 32.652V35.1957L48.4274 37.3243C46.3249 38.4953 44.5306 39.4531 44.4401 39.4531C44.3496 39.4531 44.3428 37.8745 44.4254 35.9448C44.5077 34.0154 44.4953 32.3312 44.3976 32.2022C44.1483 31.873 40.244 29.5956 40.1269 29.711C40.0739 29.7631 40.0572 33.9223 40.0898 38.9537L40.1488 48.1018L42.1845 46.8686C43.3042 46.1901 46.4595 44.2865 49.1964 42.6382C51.9333 40.9896 54.5074 39.3248 54.9166 38.9381C55.3257 38.5517 55.9618 37.6413 56.3302 36.9154C56.9903 35.6145 57 35.5432 56.9937 32.0111L56.9871 28.4271L55.6931 27.6624C54.9812 27.2416 52.1849 25.5396 49.4792 23.8799L44.5595 20.8621V19.7847V18.707L46.7172 17.7143C49.7741 16.3074 52.2452 15.3672 52.4916 15.5171C52.6076 15.5877 52.7024 16.5401 52.7024 17.6336V19.6216L54.4228 20.7436C55.3689 21.3606 56.3359 21.9672 56.5716 22.0915C56.9873 22.3107 57 22.13 57 15.961C57 12.4652 56.9238 9.61469 56.8304 9.6265C56.7369 9.63853 55.7955 9.99359 54.7381 10.4157Z" fill="#D31919"/>
</svg>
